<svg
            width="362"
            height="58"
            viewBox="0 0 362 58"
            fill="none"
            xmlns="http://www.w3.org/2000/svg"
          >
            <path
              d="M12.8969 10.1578H0V-0.00878906H36.6194V10.1578H23.7225V53.1055H12.8969V10.1578Z"
              fill="#762281"
            />
            <path
              d="M76.1545 17.9734C76.1545 30.1895 68.4769 35.9556 57.8835 35.9556H50.7431V53.1032H39.9175V-0.00878906H57.8812C68.4746 -0.00878906 76.1522 5.6831 76.1522 17.9734H76.1545ZM50.7431 9.77987V26.0928H57.2689C62.4882 26.0928 65.3289 23.1344 65.3289 17.9734C65.3289 12.8125 62.5656 9.77756 57.2689 9.77756H50.7431V9.77987Z"
              fill="#762281"
            />
            <path
              d="M340.855 56.3643L341.108 54.3669C342.241 54.5965 343.312 54.7649 344.322 54.872C345.348 54.9945 346.144 55.0633 346.71 55.0786C347.276 55.0939 348.057 55.1016 349.052 55.1016C353.567 55.1016 355.824 54.2445 355.824 52.5303C355.824 51.9027 355.511 51.39 354.883 50.9921C354.255 50.5941 353.467 50.3186 352.518 50.1656C351.569 50.0125 350.544 49.8365 349.442 49.6375C348.355 49.4386 347.337 49.2166 346.388 48.9717C345.439 48.7422 344.651 48.3366 344.024 47.7549C343.396 47.158 343.082 46.4157 343.082 45.528C343.082 44.074 343.817 43.0638 345.286 42.4975C342.47 41.3037 341.062 38.8701 341.062 35.1968V34.6458C341.062 32.0285 341.789 30.0312 343.243 28.6537C344.712 27.2609 346.878 26.5645 349.74 26.5645C352.358 26.5645 354.416 27.1767 355.916 28.4011C356.452 27.2226 357.584 26.6333 359.314 26.6333C360.156 26.6333 361.051 26.84 362 27.2532L361.587 29.0899C360.806 28.9062 360.156 28.8144 359.635 28.8144C358.977 28.8144 358.503 28.9674 358.212 29.2735C357.921 29.5796 357.753 30.0771 357.707 30.7658C358.197 31.8831 358.442 33.1764 358.442 34.6458V35.1968C358.442 37.7834 357.722 39.7731 356.283 41.1659C354.845 42.5587 352.733 43.2628 349.947 43.2781H349.442C347.161 43.3852 346.021 44.1122 346.021 45.4591C346.021 45.9795 346.251 46.4081 346.71 46.7448C347.184 47.0662 347.789 47.3111 348.524 47.4794C349.274 47.6325 350.092 47.7779 350.98 47.9157C351.883 48.0381 352.778 48.1988 353.666 48.3978C354.569 48.5814 355.388 48.8263 356.123 49.1324C356.873 49.4386 357.477 49.8901 357.936 50.487C358.411 51.0992 358.648 51.8339 358.648 52.691C358.648 55.6909 355.641 57.1908 349.626 57.1908C346.228 57.1908 343.304 56.9153 340.855 56.3643ZM343.932 35.1968C343.932 37.0793 344.422 38.541 345.401 39.5818C346.381 40.6073 347.827 41.12 349.74 41.12C351.669 41.12 353.115 40.6073 354.079 39.5818C355.059 38.541 355.549 37.0793 355.549 35.1968V34.6917C355.549 32.7632 355.067 31.2862 354.102 30.2607C353.138 29.2353 351.684 28.7225 349.74 28.7225C347.827 28.7225 346.381 29.2353 345.401 30.2607C344.422 31.2709 343.932 32.7326 343.932 34.6458V35.1968Z"
              fill="black"
            />
            <path
              d="M318.867 48.7201V28.7235C320.015 28.1572 321.446 27.6674 323.16 27.2542C324.889 26.8409 326.512 26.6343 328.027 26.6343C330.675 26.6343 332.619 27.3077 333.858 28.6546C335.114 29.9862 335.741 31.8611 335.741 34.2794V48.7201H333.055V34.5319C333.055 32.7718 332.626 31.4019 331.769 30.4224C330.927 29.4275 329.611 28.9301 327.82 28.9301C326.795 28.9301 325.647 29.0755 324.377 29.3663C323.122 29.6571 322.196 29.9479 321.599 30.2387V48.7201H318.867Z"
              fill="black"
            />
            <path
              d="M308.448 23.4425V19.4937H311.386V23.4425H308.448ZM308.563 44.1049V27.0469H311.272V44.1049C311.272 44.9467 311.409 45.5666 311.685 45.9646C311.96 46.3625 312.397 46.5615 312.993 46.5615C313.453 46.5615 314.08 46.462 314.876 46.263L315.312 48.0997C314.302 48.5129 313.307 48.7195 312.328 48.7195C311.057 48.7195 310.108 48.3828 309.481 47.7094C308.869 47.0359 308.563 45.8345 308.563 44.1049Z"
              fill="black"
            />
            <path
              d="M293.393 48.7201V28.2414C295.413 27.17 297.839 26.6343 300.67 26.6343C302.048 26.6343 303.479 26.8026 304.964 27.1394L304.458 29.1826C303.418 28.9531 302.316 28.8383 301.152 28.8383C299.193 28.8383 297.517 29.1444 296.125 29.7566V48.7201H293.393Z"
              fill="black"
            />
            <path
              d="M270.118 38.2053V37.5165C270.118 30.2617 273.087 26.6343 279.026 26.6343C281.888 26.6343 284.016 27.499 285.408 29.2286C286.816 30.9428 287.551 33.5141 287.612 36.9425V38.366H273.011C273.026 41.5342 273.631 43.7612 274.825 45.0468C276.034 46.3172 278.008 46.9524 280.748 46.9524C282.952 46.9524 285.171 46.6998 287.406 46.1947L287.727 48.261C286.901 48.4906 285.783 48.6895 284.375 48.8579C282.967 49.0416 281.643 49.1334 280.403 49.1334C276.899 49.1334 274.304 48.261 272.621 46.5161C270.952 44.7713 270.118 42.001 270.118 38.2053ZM273.011 36.5293H284.995C284.949 33.9886 284.444 32.0677 283.48 30.7668C282.531 29.4658 281.069 28.8153 279.095 28.8153C277.075 28.8153 275.582 29.4581 274.618 30.7438C273.654 32.0295 273.118 33.958 273.011 36.5293Z"
              fill="black"
            />
            <path
              d="M247.531 38.2053V37.5165C247.531 30.2617 250.501 26.6343 256.439 26.6343C259.301 26.6343 261.429 27.499 262.821 29.2286C264.23 30.9428 264.964 33.5141 265.025 36.9425V38.366H250.424C250.439 41.5342 251.044 43.7612 252.238 45.0468C253.447 46.3172 255.421 46.9524 258.161 46.9524C260.365 46.9524 262.584 46.6998 264.819 46.1947L265.14 48.261C264.314 48.4906 263.196 48.6895 261.788 48.8579C260.38 49.0416 259.056 49.1334 257.817 49.1334C254.312 49.1334 251.717 48.261 250.034 46.5161C248.365 44.7713 247.531 42.001 247.531 38.2053ZM250.424 36.5293H262.408C262.362 33.9886 261.857 32.0677 260.893 30.7668C259.944 29.4658 258.482 28.8153 256.508 28.8153C254.488 28.8153 252.995 29.4581 252.031 30.7438C251.067 32.0295 250.531 33.958 250.424 36.5293Z"
              fill="black"
            />
            <path
              d="M233.807 29.2283V27.0472H236.195V22.3867H238.927V27.0472H243.702V29.2283H238.927V42.4752C238.927 43.7303 239.164 44.7251 239.639 45.4598C240.113 46.1945 240.832 46.5618 241.797 46.5618C242.623 46.5618 243.465 46.447 244.322 46.2174L244.529 48.3066C243.733 48.5821 242.707 48.7199 241.452 48.7199C237.947 48.7199 236.195 46.6766 236.195 42.59V29.2283H233.807Z"
              fill="black"
            />
            <path
              d="M215.147 48.4446L215.4 46.4243C218.339 46.8376 220.558 47.0442 222.058 47.0442C222.992 47.0442 223.81 46.96 224.514 46.7916C225.234 46.608 225.792 46.3861 226.19 46.1259C226.588 45.8504 226.91 45.5289 227.155 45.1616C227.4 44.7943 227.56 44.4499 227.637 44.1285C227.713 43.8071 227.752 43.4704 227.752 43.1183C227.752 42.2153 227.522 41.4424 227.063 40.7995C226.619 40.1567 226.037 39.6593 225.318 39.3072C224.614 38.9399 223.826 38.6185 222.953 38.343C222.096 38.0675 221.231 37.7767 220.359 37.4706C219.487 37.1492 218.691 36.7818 217.971 36.3686C217.267 35.94 216.686 35.3508 216.227 34.6008C215.783 33.8355 215.561 32.9248 215.561 31.8688C215.561 30.7974 215.775 29.902 216.204 29.1826C216.632 28.4633 217.244 27.9276 218.04 27.5756C218.836 27.2235 219.655 26.9787 220.497 26.8409C221.354 26.7032 222.341 26.6343 223.458 26.6343C225.724 26.6343 227.889 26.8409 229.956 27.2542L229.703 29.2515C227.53 28.8689 225.578 28.6776 223.849 28.6776C223.022 28.6776 222.303 28.7235 221.691 28.8153C221.094 28.8918 220.52 29.0372 219.969 29.2515C219.418 29.4658 218.997 29.7872 218.706 30.2158C218.43 30.6443 218.293 31.1724 218.293 31.7999C218.293 32.5499 218.515 33.185 218.959 33.7054C219.418 34.2258 220.007 34.6391 220.726 34.9452C221.446 35.236 222.242 35.5115 223.114 35.7717C223.986 36.0166 224.851 36.3074 225.708 36.6441C226.581 36.9808 227.377 37.3941 228.096 37.8838C228.815 38.3583 229.397 39.0317 229.841 39.9042C230.3 40.7766 230.53 41.8174 230.53 43.0265C230.53 47.0978 227.775 49.1334 222.265 49.1334C220.03 49.1334 217.658 48.9038 215.147 48.4446Z"
              fill="black"
            />
            <path
              d="M191.533 48.7201V28.2414C193.553 27.17 195.979 26.6343 198.81 26.6343C200.188 26.6343 201.619 26.8026 203.104 27.1394L202.599 29.1826C201.558 28.9531 200.456 28.8383 199.293 28.8383C197.334 28.8383 195.658 29.1444 194.265 29.7566V48.7201H191.533Z"
              fill="black"
            />
            <path
              d="M168.257 38.2053V37.5165C168.257 30.2617 171.226 26.6343 177.165 26.6343C180.027 26.6343 182.154 27.499 183.547 29.2286C184.955 30.9428 185.69 33.5141 185.751 36.9425V38.366H171.15C171.165 41.5342 171.769 43.7612 172.963 45.0468C174.172 46.3172 176.147 46.9524 178.887 46.9524C181.091 46.9524 183.31 46.6998 185.544 46.1947L185.866 48.261C185.039 48.4906 183.922 48.6895 182.514 48.8579C181.106 49.0416 179.782 49.1334 178.542 49.1334C175.037 49.1334 172.443 48.261 170.759 46.5161C169.091 44.7713 168.257 42.001 168.257 38.2053ZM171.15 36.5293H183.134C183.088 33.9886 182.583 32.0677 181.619 30.7668C180.67 29.4658 179.208 28.8153 177.234 28.8153C175.213 28.8153 173.721 29.4581 172.757 30.7438C171.792 32.0295 171.257 33.958 171.15 36.5293Z"
              fill="black"
            />
            <path
              d="M136.488 27.0474H139.312C139.526 29.5881 139.87 32.0523 140.345 34.4399C140.819 36.8123 141.317 38.7867 141.837 40.3632C142.357 41.9243 142.832 43.2023 143.26 44.1972C143.689 45.1921 144.026 45.8425 144.271 46.1487C144.531 45.8272 144.868 45.1768 145.281 44.1972C145.709 43.2023 146.184 41.9243 146.704 40.3632C147.24 38.7867 147.745 36.8123 148.219 34.4399C148.694 32.0523 149.038 29.5881 149.253 27.0474H152.076C152.291 29.5881 152.627 32.0523 153.087 34.4399C153.561 36.8123 154.059 38.7867 154.579 40.3632C155.099 41.9396 155.574 43.2253 156.002 44.2202C156.431 45.1997 156.768 45.8425 157.012 46.1487C157.257 45.8425 157.594 45.1921 158.023 44.1972C158.451 43.2023 158.926 41.9243 159.446 40.3632C159.966 38.7867 160.464 36.8123 160.938 34.4399C161.413 32.0523 161.765 29.5881 161.994 27.0474H164.818C164.573 29.9554 164.16 32.741 163.579 35.4042C162.997 38.052 162.362 40.2637 161.673 42.0391C160.984 43.8146 160.364 45.2533 159.813 46.3553C159.278 47.442 158.811 48.2302 158.413 48.72H155.635C155.314 48.2302 154.962 47.595 154.579 46.8144C154.196 46.0186 153.729 44.9395 153.178 43.5773C152.643 42.2151 152.138 40.5392 151.663 38.5495C151.204 36.5444 150.852 34.4323 150.607 32.213C150.362 34.4323 150.003 36.5444 149.528 38.5495C149.069 40.5392 148.579 42.2151 148.059 43.5773C147.538 44.9242 147.079 46.0032 146.681 46.8144C146.299 47.6103 145.954 48.2455 145.648 48.72H142.87C142.488 48.2149 142.021 47.419 141.47 46.3323C140.934 45.2456 140.322 43.8146 139.633 42.0391C138.944 40.2637 138.309 38.0444 137.728 35.3812C137.146 32.7181 136.733 29.9401 136.488 27.0474Z"
              fill="black"
            />
            <path
              d="M114.04 38.2053V37.5165C114.04 34.0422 114.843 31.356 116.45 29.4582C118.057 27.5603 120.414 26.6113 123.521 26.6113C126.628 26.6113 128.985 27.5603 130.592 29.4582C132.2 31.356 133.003 34.0422 133.003 37.5165V38.2053C133.003 41.6643 132.2 44.3504 130.592 46.2636C128.985 48.1768 126.628 49.1334 123.521 49.1334C120.414 49.1334 118.057 48.1768 116.45 46.2636C114.843 44.3504 114.04 41.6643 114.04 38.2053ZM116.932 38.2053C116.932 40.9756 117.483 43.126 118.585 44.6565C119.703 46.1871 121.348 46.9524 123.521 46.9524C125.679 46.9524 127.309 46.1871 128.411 44.6565C129.529 43.1107 130.087 40.9603 130.087 38.2053V37.5165C130.087 34.7156 129.536 32.5575 128.434 31.0423C127.332 29.527 125.695 28.7694 123.521 28.7694C121.333 28.7694 119.687 29.527 118.585 31.0423C117.483 32.5575 116.932 34.7156 116.932 37.5165V38.2053Z"
              fill="black"
            />
            <path
              d="M91.27 57.054V27.9888C92.1424 27.5756 93.2521 27.2465 94.599 27.0016C95.9612 26.7567 97.2927 26.6343 98.5937 26.6343C100.155 26.6343 101.555 26.8332 102.795 27.2312C104.035 27.6138 105.129 28.2184 106.078 29.0449C107.042 29.8714 107.777 30.9887 108.282 32.3968C108.802 33.7896 109.063 35.4426 109.063 37.3558V37.815C109.063 41.473 108.29 44.2739 106.744 46.2177C105.198 48.1615 102.864 49.1334 99.7416 49.1334C97.8897 49.1334 95.9765 48.8426 94.0021 48.261V57.054H91.27ZM94.0021 46.1029C94.4612 46.3019 95.1882 46.4932 96.1831 46.6769C97.178 46.8605 98.1269 46.9524 99.0299 46.9524C101.433 46.9524 103.224 46.1718 104.402 44.6106C105.596 43.0341 106.193 40.7536 106.193 37.769V37.3558C106.193 34.4018 105.512 32.2437 104.15 30.8816C102.803 29.5041 100.951 28.8153 98.5937 28.8153C97.7366 28.8153 96.8718 28.8995 95.9994 29.0679C95.127 29.2209 94.4612 29.3969 94.0021 29.5959V46.1029Z"
              fill="black"
            />
          </svg>